<svg width="383" height="383" viewBox="0 0 383 383" fill="none" xmlns="http://www.w3.org/2000/svg">
<path fill-rule="evenodd" clip-rule="evenodd" d="M13.6786 355.048L307.768 23.3431L294.974 12L275.822 33.6019H102.832L90.7421 21.5117L78.6518 33.602L183.163 138.113L152.846 172.307L12.4997 21.9356L0 33.602L23.9375 59.2493V317.704L0.884662 343.705L13.6786 355.048ZM359.063 61.4821L383 33.602L370.027 22.4638L115.332 319.109L92.2449 344.789H93.2831L79.3577 361.009L92.3304 372.147L115.819 344.789H270.057L283.83 361.888L297.146 351.162L206.723 238.913L243.315 196.294L245.225 198.419L369.321 344.79L382.363 333.732L359.063 306.249V61.4821Z" fill="black"/>
</svg>
